<?xml version="1.0" encoding="UTF-8"?>
<svg width="53.5057143px" height="56.9514286px" viewBox="0 0 53.5057143 56.9514286" version="1.1" xmlns="http://www.w3.org/2000/svg" xmlns:xlink="http://www.w3.org/1999/xlink">
    <title>1_通用组件/10-icon/B-填充图标/【列表文件】document-line</title>
    <defs>
        <path d="M12.9214286,0.861428571 C13.1770832,0.861428571 13.4195302,0.974984679 13.5831963,1.17138401 L17.8903392,6.33995544 C18.0193489,6.49476708 18.09,6.68990898 18.09,6.89142857 L18.09,18.9514286 C18.09,19.4271824 17.7043253,19.8128571 17.2285714,19.8128571 L3.44571429,19.8128571 C2.96996042,19.8128571 2.58428571,19.4271824 2.58428571,18.9514286 L2.58428571,1.72285714 C2.58428571,1.24710328 2.96996042,0.861428571 3.44571429,0.861428571 Z M13.7828571,12.9214286 L6.89142857,12.9214286 L6.7909678,12.927224 C6.36254605,12.9769845 6.03,13.3410857 6.03,13.7828571 C6.03,14.258611 6.41567471,14.6442857 6.89142857,14.6442857 L13.7828571,14.6442857 L13.8833179,14.6384903 C14.3117397,14.5887297 14.6442857,14.2246286 14.6442857,13.7828571 C14.6442857,13.3071033 14.258611,12.9214286 13.7828571,12.9214286 Z M13.7828571,9.47571429 L6.89142857,9.47571429 L6.7909678,9.48150975 C6.36254605,9.53127026 6.03,9.89537141 6.03,10.3371429 C6.03,10.8128967 6.41567471,11.1985714 6.89142857,11.1985714 L13.7828571,11.1985714 L13.8833179,11.192776 C14.3117397,11.1430155 14.6442857,10.7789143 14.6442857,10.3371429 C14.6442857,9.86138899 14.258611,9.47571429 13.7828571,9.47571429 Z M12.06,6.03 L6.89142857,6.03 L6.7909678,6.03579546 C6.36254605,6.08555597 6.03,6.44965713 6.03,6.89142857 C6.03,7.36718243 6.41567471,7.75285714 6.89142857,7.75285714 L12.06,7.75285714 L12.1604608,7.74706168 C12.5888825,7.69730117 12.9214286,7.33320002 12.9214286,6.89142857 C12.9214286,6.41567471 12.5357539,6.03 12.06,6.03 Z" id="path-1"></path>
        <filter x="-190.3%" y="-145.1%" width="480.5%" height="411.3%" filterUnits="objectBoundingBox" id="filter-2">
            <feOffset dx="0" dy="2" in="SourceAlpha" result="shadowOffsetOuter1"></feOffset>
            <feGaussianBlur stdDeviation="9.5" in="shadowOffsetOuter1" result="shadowBlurOuter1"></feGaussianBlur>
            <feColorMatrix values="0 0 0 0 0   0 0 0 0 0   0 0 0 0 0  0 0 0 0.0360850087 0" type="matrix" in="shadowBlurOuter1"></feColorMatrix>
        </filter>
    </defs>
    <g id="页面-1" stroke="none" stroke-width="1" fill="none" fill-rule="evenodd">
        <g id="首页-营销岗-当日" transform="translate(-1463.298571, -647.575714)">
            <g id="工作指引备份" transform="translate(1444.000000, 410.000000)">
                <g id="编组-11备份-3" transform="translate(16.000000, 236.000000)">
                    <g id="编组-12" transform="translate(12.000000, 10.000000)">
                        <g id="1_通用组件/10-icon/B-填充图标/【列表文件】document-line" transform="translate(7.714286, 7.714286)">
                            <rect id="bg" fill-opacity="0" fill="#FFFFFF" x="0" y="0" width="20.6742857" height="20.6742857"></rect>
                            <g id="形状结合">
                                <use fill="black" fill-opacity="1" filter="url(#filter-2)" xlink:href="#path-1"></use>
                                <use fill="#FFFFFF" fill-rule="evenodd" xlink:href="#path-1"></use>
                            </g>
                        </g>
                    </g>
                </g>
            </g>
        </g>
    </g>
</svg>